<?xml version="1.0" standalone="no"?><!DOCTYPE svg PUBLIC "-//W3C//DTD SVG 1.1//EN" "http://www.w3.org/Graphics/SVG/1.1/DTD/svg11.dtd"><svg t="1715191268911" class="icon" viewBox="0 0 1024 1024" version="1.1" xmlns="http://www.w3.org/2000/svg" p-id="12661" xmlns:xlink="http://www.w3.org/1999/xlink" width="48" height="48"><path d="M516.288 957.632a169.408 169.408 0 0 1-80.512-20.224l-273.536-148.16c-50.304-27.968-80.832-77.504-80.512-130.816V362.24c0-53.248 30.208-102.784 80.448-130.816L435.776 83.2a170.368 170.368 0 0 1 161.024 0L870.4 231.424c50.24 28.096 80.704 77.568 80.512 130.816v296.192c0 53.248-30.208 102.848-80.512 130.816l-273.6 148.16a169.024 169.024 0 0 1-80.512 20.224z m5.632-257.28a88.832 88.832 0 0 0-56.128 17.984 56.448 56.448 0 0 0-22.848 46.08 57.6 57.6 0 0 0 22.656 45.696 92.672 92.672 0 0 0 60.864 18.688 76.8 76.8 0 0 0 51.968-18.688 58.304 58.304 0 0 0 21.632-45.696 56.832 56.832 0 0 0-22.208-45.824 85.824 85.824 0 0 0-55.616-18.24z m-71.552-460.8l15.744 401.344h108.8l16.704-401.344z m0 0" fill="#13227a" p-id="12662"></path><path d="M516.352 957.632a185.6 185.6 0 0 1-20.672-1.28 473.6 473.6 0 0 1-29.568-145.856 93.888 93.888 0 0 0 60.416 18.304 76.8 76.8 0 0 0 51.968-18.752 58.24 58.24 0 0 0 21.312-45.632 56.896 56.896 0 0 0-22.208-45.888 86.336 86.336 0 0 0-55.936-18.112 91.264 91.264 0 0 0-50.048 13.696 472.32 472.32 0 0 1 17.856-72.832h85.12l7.104-163.392c84.608-101.504 210.368-168.704 349.824-186.944a145.216 145.216 0 0 1 19.2 71.424v296.192c0 53.248-30.336 102.784-80.512 130.816l-273.6 148.096a169.856 169.856 0 0 1-80.256 20.16z m0 0" fill="#13227a" p-id="12663"></path></svg>